<?xml version="1.0" encoding="UTF-8" standalone="no"?><!DOCTYPE svg PUBLIC "-//W3C//DTD SVG 1.1//EN" "http://www.w3.org/Graphics/SVG/1.1/DTD/svg11.dtd"><svg width="100%" height="100%" viewBox="0 0 9892 1077" version="1.1" xmlns="http://www.w3.org/2000/svg" xmlns:xlink="http://www.w3.org/1999/xlink" xml:space="preserve" xmlns:serif="http://www.serif.com/" style="fill-rule:evenodd;clip-rule:evenodd;stroke-linecap:round;stroke-linejoin:round;stroke-miterlimit:1.5;"><rect id="Artboard1" x="0" y="0" width="9891.34" height="1076.14" style="fill:none;"/><clipPath id="_clip1"><rect x="0" y="0" width="9891.34" height="1076.14"/></clipPath><g clip-path="url(#_clip1)"><rect x="0" y="0" width="9891.34" height="1076.14" style="fill:#1c1c1c;"/><path d="M7699.38,703.347c-70.966,178.269 -376.139,-117.023 -564.572,-89.156c-218.155,32.263 -396.833,267.19 -744.353,282.733c-412.842,18.463 -576.138,-206.089 -627.654,-480.305c-33.23,-176.883 64.777,-433.759 223.937,-510.962c299.634,-145.34 1288.42,-494.028 1573.87,-361.08c285.44,132.949 209.743,980.501 138.777,1158.77Z"/><path d="M1680.28,1008.97c123.311,-168.412 931.434,-44.882 1232.3,-183.23c735.425,-338.171 -247.682,-711.833 523.286,-696.392c985.311,19.733 1172.45,565.862 961.926,850.339c-210.525,284.478 -1772.16,851.646 -2225.08,856.527c-401.23,4.323 -615.744,-658.832 -492.433,-827.244Z"/><g><path d="M3187.9,-396.58c213.317,-36.85 416.421,106.419 453.272,319.736c36.85,213.317 -106.418,416.421 -319.736,453.271c-213.317,36.851 -416.421,-106.418 -453.271,-319.735c-36.851,-213.317 106.418,-416.421 319.735,-453.272Z" style="fill:none;stroke:#fff600;stroke-width:14.54px;"/><path d="M3327.32,-362.266c213.317,-36.85 416.422,106.419 453.272,319.736c36.85,213.317 -106.418,416.421 -319.735,453.271c-213.318,36.851 -416.422,-106.418 -453.272,-319.735c-36.851,-213.317 106.418,-416.421 319.735,-453.272Z" style="fill:none;stroke:#fff600;stroke-width:14.54px;"/><path d="M3468.32,-319.922c213.317,-36.851 416.421,106.418 453.271,319.735c36.851,213.317 -106.418,416.421 -319.735,453.272c-213.317,36.85 -416.421,-106.419 -453.272,-319.736c-36.85,-213.317 106.419,-416.421 319.736,-453.271Z" style="fill:none;stroke:#fff600;stroke-width:14.54px;"/></g><g><path d="M5550.82,1296.48l1218.02,0l0,-719.828l-1218.02,719.828Z" style="fill:none;stroke:#fff600;stroke-width:14.54px;"/><path d="M5776.24,1296.48l1218.02,0l-0,-719.828l-1218.02,719.828Z" style="fill:none;stroke:#fff600;stroke-width:14.54px;"/><path d="M6002.19,1296.48l1218.02,0l-0,-719.828l-1218.02,719.828Z" style="fill:none;stroke:#fff600;stroke-width:14.54px;"/></g><path d="M146.209,-16.045c0,-0 -490.081,395.347 -78.148,675.527c411.934,280.18 651.811,958.807 935.519,269.976c371.717,-902.517 -805.297,-1318.05 -857.371,-945.503Z"/><path d="M8761.97,1363.72c194.818,-547.596 221.145,-629.811 558.127,-825.645c336.983,-195.833 1010.95,37.873 984.622,0c-26.327,-37.873 -115.838,1041.53 -115.838,1041.53c0,0 -1621.73,331.717 -1426.91,-215.88Z"/><rect x="9174.55" y="-1297.79" width="1986.86" height="1523.29" style="fill:none;stroke:#fff600;stroke-width:14.54px;"/><rect x="9057.53" y="-1200.78" width="1986.86" height="1523.29" style="fill:none;stroke:#fff600;stroke-width:14.54px;"/><rect x="8941.18" y="-1104.42" width="1986.86" height="1523.29" style="fill:none;stroke:#fff600;stroke-width:14.54px;"/><path d="M-311.839,690.089c-0,0 101.172,-58.073 195.275,-112.088c31.549,-18.109 70.474,-17.519 101.46,1.536c30.986,19.056 49.074,53.529 47.147,89.855c-0.751,14.153 -1.51,28.446 -2.261,42.6c-1.927,36.326 16.16,70.798 47.147,89.854c30.986,19.056 69.911,19.645 101.46,1.536c12.292,-7.056 24.706,-14.181 36.998,-21.237c31.549,-18.109 70.474,-17.519 101.461,1.536c30.986,19.056 49.073,53.529 47.146,89.855c-0.751,14.153 -1.509,28.446 -2.26,42.6c-1.928,36.326 16.16,70.798 47.146,89.854c30.986,19.056 69.911,19.645 101.46,1.536c12.293,-7.056 24.706,-14.181 36.999,-21.237c31.548,-18.109 70.474,-17.519 101.46,1.537c30.986,19.055 49.074,53.528 47.146,89.854c-0.751,14.153 -1.509,28.446 -2.26,42.6c-1.928,36.326 16.16,70.798 47.146,89.854c30.987,19.056 69.912,19.645 101.461,1.536c12.292,-7.056 24.705,-14.181 36.998,-21.237c31.549,-18.109 70.474,-17.519 101.46,1.537c30.986,19.055 49.074,53.528 47.147,89.854c-0.751,14.154 -1.51,28.446 -2.261,42.6c-1.927,36.326 16.16,70.798 47.147,89.854c30.986,19.056 69.911,19.645 101.46,1.536c94.103,-54.015 195.275,-112.087 195.275,-112.087" style="fill:none;stroke:#fff600;stroke-width:14.54px;"/><path d="M-242.315,594.102c-0,0 101.172,-58.073 195.275,-112.088c31.548,-18.109 70.474,-17.519 101.46,1.537c30.986,19.056 49.074,53.528 47.146,89.854c-0.751,14.154 -1.509,28.446 -2.26,42.6c-1.928,36.326 16.16,70.798 47.146,89.854c30.986,19.056 69.912,19.646 101.461,1.536c12.292,-7.055 24.705,-14.181 36.998,-21.237c31.549,-18.109 70.474,-17.519 101.46,1.537c30.986,19.056 49.074,53.528 47.147,89.854c-0.751,14.154 -1.51,28.446 -2.261,42.6c-1.927,36.326 16.16,70.798 47.147,89.854c30.986,19.056 69.911,19.646 101.46,1.536c12.293,-7.055 24.706,-14.181 36.998,-21.237c31.549,-18.109 70.474,-17.519 101.461,1.537c30.986,19.056 49.074,53.528 47.146,89.854c-0.751,14.154 -1.509,28.446 -2.26,42.6c-1.928,36.326 16.16,70.798 47.146,89.854c30.986,19.056 69.911,19.646 101.46,1.537c12.293,-7.056 24.706,-14.182 36.999,-21.238c31.549,-18.109 70.474,-17.519 101.46,1.537c30.986,19.056 49.074,53.528 47.146,89.854c-0.751,14.154 -1.509,28.446 -2.26,42.6c-1.927,36.326 16.16,70.798 47.146,89.854c30.987,19.056 69.912,19.646 101.461,1.537c94.102,-54.015 195.275,-112.088 195.275,-112.088" style="fill:none;stroke:#fff600;stroke-width:14.54px;"/><path d="M-166.226,491.55c-0,0 101.172,-58.073 195.275,-112.088c31.548,-18.109 70.474,-17.519 101.46,1.537c30.986,19.056 49.074,53.528 47.146,89.854c-0.751,14.154 -1.509,28.446 -2.26,42.6c-1.928,36.326 16.16,70.798 47.146,89.854c30.986,19.056 69.912,19.645 101.461,1.536c12.292,-7.056 24.705,-14.181 36.998,-21.237c31.549,-18.109 70.474,-17.519 101.46,1.537c30.986,19.056 49.074,53.528 47.147,89.854c-0.751,14.154 -1.51,28.446 -2.261,42.6c-1.927,36.326 16.16,70.798 47.147,89.854c30.986,19.056 69.911,19.646 101.46,1.536c12.293,-7.055 24.706,-14.181 36.998,-21.237c31.549,-18.109 70.474,-17.519 101.461,1.537c30.986,19.056 49.073,53.528 47.146,89.854c-0.751,14.154 -1.509,28.446 -2.26,42.6c-1.928,36.326 16.16,70.798 47.146,89.854c30.986,19.056 69.911,19.646 101.46,1.536c12.293,-7.055 24.706,-14.181 36.999,-21.237c31.549,-18.109 70.474,-17.519 101.46,1.537c30.986,19.056 49.074,53.528 47.146,89.854c-0.751,14.154 -1.509,28.446 -2.26,42.6c-1.928,36.326 16.16,70.798 47.146,89.854c30.987,19.056 69.912,19.646 101.461,1.536c94.102,-54.014 195.275,-112.087 195.275,-112.087" style="fill:none;stroke:#fff600;stroke-width:14.54px;"/></g></svg>