<?xml version="1.0" encoding="UTF-8" standalone="no"?>
<!DOCTYPE svg PUBLIC "-//W3C//DTD SVG 1.1//EN" "http://www.w3.org/Graphics/SVG/1.1/DTD/svg11.dtd">
<svg width="100%" height="100%" viewBox="0 0 362 299" version="1.1" xmlns="http://www.w3.org/2000/svg" xmlns:xlink="http://www.w3.org/1999/xlink" xml:space="preserve" xmlns:serif="http://www.serif.com/" style="fill-rule:evenodd;clip-rule:evenodd;stroke-linecap:round;stroke-linejoin:round;stroke-miterlimit:1.5;">
    <g transform="matrix(1,0,0,1,-1836.63,-549.33)">
        <g transform="matrix(0.974415,0,0,0.974415,22.1673,-6.26724)">
            <path d="M1991.95,796.694C1991.95,796.694 2063.02,793.68 2098.8,792.163C2110.02,791.687 2118.87,782.453 2118.87,771.222C2118.87,771.222 2118.87,771.221 2118.87,771.221C2118.87,759.645 2109.49,750.261 2097.91,750.261L2055.56,750.261C2033.1,749.933 2027.65,733.646 1992.73,730.896C1961.53,728.439 1931.31,760.842 1931.31,760.842L1867.74,820.43L1909.2,870.814L1965.06,838.427L2094.07,838.427C2107.82,838.427 2121.15,833.679 2131.81,824.986C2154.63,806.372 2195.71,772.861 2219.41,753.531C2224.15,749.665 2227.09,744.024 2227.55,737.926C2228.01,731.828 2225.95,725.807 2221.85,721.272C2221.85,721.272 2221.85,721.272 2221.85,721.271C2213.98,712.577 2200.73,711.457 2191.51,718.708C2166.01,738.778 2119.68,775.244 2119.68,775.244C2119.68,775.244 2136.4,762.079 2147.79,753.12C2150.49,750.994 2152.21,747.859 2152.56,744.437C2152.9,741.016 2151.84,737.6 2149.62,734.977C2149.55,734.898 2149.49,734.82 2149.42,734.742C2145.05,729.58 2137.39,728.767 2132.03,732.896C2121.96,740.651 2107.56,751.739 2107.56,751.739C2107.56,751.739 2050.8,694.976 2012.8,656.977C2003.92,648.096 1998.93,636.051 1998.93,623.491C1998.93,610.932 2003.92,598.886 2012.8,590.005C2012.8,590.002 2012.81,589.999 2012.81,589.996C2021.69,581.115 2033.74,576.125 2046.3,576.125C2058.86,576.125 2070.9,581.115 2079.78,589.996C2084.68,594.899 2088.12,598.336 2088.12,598.336C2088.12,598.336 2091.73,594.739 2096.84,589.648C2115.34,571.201 2145.28,571.223 2163.76,589.697C2163.86,589.799 2163.96,589.901 2164.06,590.003C2182.56,608.496 2182.56,638.48 2164.06,656.974C2132.59,688.451 2090.27,730.763 2090.27,730.763" style="fill:none;stroke:black;stroke-width:11.28px;"/>
        </g>
    </g>
</svg>
