<?xml version="1.0" encoding="UTF-8" standalone="no"?>
<!DOCTYPE svg PUBLIC "-//W3C//DTD SVG 1.1//EN" "http://www.w3.org/Graphics/SVG/1.1/DTD/svg11.dtd">
<svg width="100%" height="100%" viewBox="0 0 269 353" version="1.1" xmlns="http://www.w3.org/2000/svg" xmlns:xlink="http://www.w3.org/1999/xlink" xml:space="preserve" xmlns:serif="http://www.serif.com/" style="fill-rule:evenodd;clip-rule:evenodd;stroke-linecap:round;stroke-linejoin:round;stroke-miterlimit:1.5;">
    <g transform="matrix(1,0,0,1,-1238.2,-520.783)">
        <g transform="matrix(0.886926,0,0,0.886926,68.7881,98.17)">
            <path d="M1525.94,709.935L1381.55,709.935C1370.01,709.935 1360.65,700.579 1360.65,689.039C1360.65,688.614 1360.65,688.188 1360.65,687.763C1360.65,676.223 1370.01,666.868 1381.55,666.868C1423.41,666.868 1517.11,666.868 1558.97,666.868C1570.51,666.868 1579.87,657.512 1579.87,645.972C1579.87,645.547 1579.87,645.121 1579.87,644.696C1579.87,633.156 1570.51,623.8 1558.97,623.8C1517.11,623.8 1423.41,623.8 1381.55,623.8C1370.01,623.8 1360.65,614.445 1360.65,602.905C1360.65,602.48 1360.65,602.054 1360.65,601.629C1360.65,590.089 1370.01,580.733 1381.55,580.733L1559.53,580.733C1571.07,580.733 1580.43,571.378 1580.43,559.838L1580.43,558.579C1580.43,553.037 1578.22,547.722 1574.31,543.804C1570.39,539.885 1565.07,537.684 1559.53,537.684L1345.59,537.684C1340.05,537.684 1334.73,539.885 1330.81,543.804C1326.89,547.722 1324.69,553.037 1324.69,558.579C1324.69,618.059 1324.69,787.82 1324.69,847.299C1324.69,852.841 1326.89,858.156 1330.81,862.074C1334.73,865.993 1340.05,868.195 1345.59,868.195C1399.08,868.195 1540.48,868.195 1593.96,868.195C1599.5,868.195 1604.82,865.993 1608.74,862.074C1612.66,858.156 1614.86,852.841 1614.86,847.299C1614.86,780.201 1614.86,570.683 1614.86,503.585C1614.86,498.044 1612.66,492.729 1608.74,488.81C1604.82,484.891 1599.5,482.69 1593.96,482.69C1540.48,482.69 1399.08,482.69 1345.59,482.69C1340.05,482.69 1334.73,484.891 1330.81,488.81C1326.89,492.729 1324.69,498.044 1324.69,503.585C1324.69,511.527 1324.69,518.698 1324.69,518.698" style="fill:none;stroke:black;stroke-width:12.4px;"/>
        </g>
    </g>
</svg>
