<?xml version="1.0" encoding="UTF-8" standalone="no"?>
<!DOCTYPE svg PUBLIC "-//W3C//DTD SVG 1.1//EN" "http://www.w3.org/Graphics/SVG/1.1/DTD/svg11.dtd">
<svg width="100%" height="100%" viewBox="0 0 281 353" version="1.1" xmlns="http://www.w3.org/2000/svg" xmlns:xlink="http://www.w3.org/1999/xlink" xml:space="preserve" xmlns:serif="http://www.serif.com/" style="fill-rule:evenodd;clip-rule:evenodd;stroke-linecap:round;stroke-linejoin:round;stroke-miterlimit:1.5;">
    <g transform="matrix(1,0,0,1,-663.029,-520.783)">
        <g transform="matrix(0.872075,0,0,0.872075,100.006,55.8057)">
            <path d="M727.724,843.492C727.724,843.492 793.215,842.455 812.473,843.014C831.732,843.572 839.328,837.42 845.688,826.685C851.391,817.059 844.286,800.792 840.412,795.369L790.824,720.686L790.61,720.4C790.61,720.4 870.788,663.946 877.456,659.008C874.335,661.317 860.499,671.166 847.734,680.232C838.084,687.086 829.046,693.493 825.714,695.855C825.815,706.05 826.422,714.752 833.111,723.626C839.613,732.253 848.462,732.697 848.462,732.697C848.462,732.697 926.357,730.994 933.871,728.511C940.048,726.469 956.2,721.812 953.409,701.855C950.617,681.899 937.499,682.178 937.499,682.178L881.397,679.945L877.456,659.008C882.062,654.124 881.634,650.235 881.414,645.332C880.908,634.047 871.062,614.626 871.062,614.626C866.155,607.02 863.306,597.963 863.306,588.246C863.306,561.336 885.154,539.489 912.064,539.489C938.974,539.489 960.821,561.336 960.821,588.246C960.821,615.156 938.974,637.004 912.064,637.004C894.87,637.004 882.709,630.877 872.632,617.243L851.729,588.063L777.317,540.636C777.317,540.636 684.098,549.63 680.282,550.993C676.466,552.356 651.662,558.353 651.918,579.341C652.174,600.329 674.013,600.192 674.013,600.192L762.871,600.192L777.317,611.64C777.317,611.64 714.85,656.785 709.447,662.339C699.635,672.424 698.817,677.33 698.272,691.504C697.784,704.177 708.902,719.578 708.902,719.578L754.421,784.314C754.421,784.314 702.088,786.222 685.461,785.95C668.834,785.677 652.752,793.309 651.935,817.023C651.117,840.736 681.1,842.372 681.1,842.372L702.36,843.462C702.36,843.462 670.742,881.077 669.107,881.895C667.471,882.712 650.027,909.424 669.107,925.233C688.187,941.043 708.902,922.235 708.902,922.235L789.038,844.552" style="fill:none;stroke:black;stroke-width:12.61px;"/>
        </g>
    </g>
</svg>
