<svg xmlns="http://www.w3.org/2000/svg" id="Layer_1" data-name="Layer 1" width="16in" height="38.65817in" viewBox="0 0 1152 2783.38821"><defs><style>.bg-shapes{opacity:1;}</style></defs><title>afer-bg</title><g class="bg-shapes"><path d="M1152,751.96V1355.64c-39.69995-74.93005-91.49-151.91-178.93-173.70007-146.39-36.47-248.63,117.67-328.83,67.93006-85.89-53.28-85.24-302.4,48.33-438.86C809.93,691.12,1005.75,682.88,1152,751.96Z" transform="translate(0 -150.99764)"/><path d="M860.33,1970.57007c-43.38,123.68994-249.52,31.99-735.65,64.24-43.41,2.87988-83.17,6.35986-119.73,10.08L0,2006.18994V1373.61c101.19,122.25,122.28,334.15,264.37,382.16,168.41,56.90991,272.7-195.52,431.87-122.39C807.21,1684.35,895.14,1871.30005,860.33,1970.57007Z" transform="translate(0 -150.99764)"/><path d="M1152,2380.23v419.22c-170.4,89.51-465.32,211.33008-620.09,71.23-89.77-81.27-125.99-244.86987-64.45-324.69995,78.49-101.82007,246.49,22.78,491.78-58.48C1038.23,2461.33008,1100.6,2421.98,1152,2380.23Z" transform="translate(0 -150.99764)"/><path d="M171.44,816.01C154.12,823.21,80.16,853.96,0,859.97V200.98c8.67-5.925,17.785-11.67749,27.35876-17.17749C41.29951,175.7937,54.23885,169.62134,57.47,168.14c9.51011-4.35995,55.25442-23.257,79.53-15.14,38.72224,12.94748,11.19244,90.74081,48,168,53.96677,113.27646,190.80365,109.04379,208,208,4.37735,25.18939-1.32162,43.69122-11.6,77.06C338.6622,744.8089,192.40132,807.29639,171.44,816.01Z" transform="translate(0 -150.99764)"/><path d="M124.68,2034.81006c-43.41,2.87988-83.17,6.35986-119.73,10.08L0,2006.18994V1373.61c101.19,122.25,122.28,334.15,264.37,382.16,168.41,56.90991,272.7-195.52,431.87-122.39,110.97,50.97,198.9,237.92,164.09,337.19007C816.95,2094.26,610.81,2002.56006,124.68,2034.81006Z" transform="translate(0 -150.99764)"/><path d="M1152,2380.23v419.22c-170.4,89.51-465.32,211.33008-620.09,71.23-89.77-81.27-125.99-244.86987-64.45-324.69995,78.49-101.82007,246.49,22.78,491.78-58.48C1038.23,2461.33008,1100.6,2421.98,1152,2380.23Z" transform="translate(0 -150.99764)"/><path d="M1152,751.96V1355.64c-39.69995-74.93005-91.49-151.91-178.93-173.70007-146.39-36.47-248.63,117.67-328.83,67.93006-85.89-53.28-85.24-302.4,48.33-438.86C809.93,691.12,1005.75,682.88,1152,751.96Z" transform="translate(0 -150.99764)"/></g></svg>